<?xml version="1.0" encoding="UTF-8"?>
<!DOCTYPE svg PUBLIC "-//W3C//DTD SVG 1.1//EN" "http://www.w3.org/Graphics/SVG/1.1/DTD/svg11.dtd">
<!-- Creator: CorelDRAW 2018 (64-Bit) -->
<svg xmlns="http://www.w3.org/2000/svg" xml:space="preserve" width="75.1291mm" height="75.0994mm" version="1.1" style="shape-rendering:geometricPrecision; text-rendering:geometricPrecision; image-rendering:optimizeQuality; fill-rule:evenodd; clip-rule:evenodd"
viewBox="0 0 4148.3 4146.66"
 xmlns:xlink="http://www.w3.org/1999/xlink">
 <defs>
  <style type="text/css">
   <![CDATA[
    .fil2 {fill:#01ADEE}
    .fil3 {fill:#62CCF4}
    .fil1 {fill:#8CC53D}
    .fil0 {fill:#F8931F}
    .fil4 {fill:#F9A749}
    .fil5 {fill:#F9D8A7}
   ]]>
  </style>
 </defs>
 <g id="Layer_x0020_1">
  <metadata id="CorelCorpID_0Corel-Layer"/>
  <g id="_1790815985680">
   <path class="fil0" d="M110.97 2149l0 -151.34c0,-280.44 95.16,-584.87 189.99,-773.51 74.83,-148.85 199.67,-347.35 315.64,-471.29 90.22,-96.41 176.08,-181.13 286.33,-258.46l260.54 -163.18c7.74,-4.15 12.38,-7.31 19.43,-10.83 408.04,-204.19 890.91,-271.05 1335.14,-159.98 65.41,16.35 125.67,29.99 184.88,52.19 28.66,10.74 57.09,20.3 89.69,31.38 32.88,11.17 54.25,22.64 85.46,35.6 56.47,23.46 108.6,50.14 158.27,78.81 127.49,73.59 167.04,106.22 279.86,194.32 54.12,42.26 132.48,122.55 156.4,141.22 37.83,29.52 165.07,186.51 192.47,226.21 16.89,24.48 31.63,44.69 47.47,68.55 8.43,12.69 13.84,23.33 23.09,37.44 142.43,217.33 233.22,485.85 278.14,740.85 26.84,152.34 21.55,240.9 21.55,392.11 0,153.42 -34.78,287.79 -62.63,416.6 -14.62,67.6 -39.08,122.15 -59.11,183.03 -10.38,31.53 -22.19,58.52 -33.91,87.16l-76.62 160.48c-14.3,24.6 -26.91,53.56 -43.07,77.99l-96.94 145.19c-17.22,25.31 -33.38,44.97 -52.6,68.47 -9.78,11.96 -17.14,21.06 -26.9,33.63 -91.51,117.87 -289.31,286.85 -412.73,369.14l-189.75 112.91c-15.08,7.79 -21.85,13.91 -38.51,22.03 -15.54,7.58 -28.12,11.32 -42.25,18.28 -13.51,6.65 -26.7,13.67 -40.21,20.32 -27.8,13.69 -56.55,23.85 -86.46,34.6 -247.89,89.04 -343.31,97.42 -600.35,126.01l-115.27 5.78c-72.88,0 -154.04,-7.91 -221.53,-15.55 -182.16,-20.61 -314.18,-68.68 -477.71,-122.55 -31.33,-10.32 -58.28,-21.09 -86.02,-35.04 -63.89,-32.15 -88.6,-38.68 -157.01,-80.07 -14.05,-8.5 -24.81,-12.5 -39.28,-21.26l-110.93 -70.66c-62.52,-45.67 -146.4,-103.6 -200.07,-158.08 -34.65,-35.17 -82.86,-72.71 -121.03,-116.06l-56.4 -64.67c-10.67,-13.74 -18.07,-19.31 -28.17,-32.36 -8.83,-11.4 -16.71,-21.35 -26.76,-33.77 -246.47,-304.44 -422.12,-738.59 -422.12,-1141.67zm-110.97 -105.94c0,271.66 31.55,463.98 110.29,701.88l72.95 184.32c34.29,73.94 53.98,103.45 87.4,169.88 35.55,70.67 156.3,239.59 209.71,304.82l123.62 138.69c108.12,98.94 161.27,141.06 283.03,231.49 46.2,34.32 184.75,117.98 237.78,145.59 95.44,49.69 263.03,120.82 367.2,147.32 200.75,51.06 339.59,79.63 576.12,79.63 185.73,0 488.38,-39.78 665.12,-106.64 28.31,-10.71 63.11,-24.35 92.13,-33.99 158.17,-52.49 363.3,-176.61 495.86,-275.91 14.46,-10.84 23.6,-17.53 37.04,-28.54 47.4,-38.85 170.39,-141.11 202.17,-181.2 9.97,-12.57 20.52,-21.62 32.28,-33.3l88.88 -102.81c126.86,-159.96 234.46,-334.65 312.73,-524.64 33.5,-81.32 71.9,-208.46 92.51,-295.92 21.92,-93.02 56.59,-290.14 59.64,-394.37 5.67,-193.72 0.22,-333.75 -43.55,-526.81 -15.66,-69.05 -32.99,-138.91 -54.35,-202.92 -39.16,-117.36 -92.2,-253.46 -154.24,-360.29 -64.06,-110.32 -145.69,-253.17 -236.06,-344.05 -24.56,-24.7 -49.87,-60.01 -93.29,-103.44 -147.93,-147.94 -321.96,-295.7 -509.89,-388.01l-87.41 -43.74c-244.66,-117.51 -559.01,-200.1 -833.97,-200.1 -377.32,0 -665.97,56.09 -1005.47,225.32l-160.69 91.52c-95.12,61.03 -226.14,156.09 -306.94,237.85l-96.48 95.2c-44.24,39.9 -155.1,181.28 -188.75,229.93l-144.91 238.47c-15.97,28.56 -29.88,58.92 -43.86,87.3l-38.15 87.96c-12.45,32.84 -22.93,59.12 -34.34,91.77 -68.78,196.75 -114.06,434.61 -114.06,657.75z"/>
   <path class="fil1" d="M2446.41 3132.31l35.92 0.09 44.79 78.06c5.67,-29.17 26.26,-53.68 44.64,-78.53 127.59,-172.54 301.31,-559.28 354.88,-775.08 50.29,-202.61 53.35,-245.01 59.34,-445.12 0.76,-25.4 5.07,-27.93 5.41,-55.12 0.26,-21.08 0.59,-45.02 -0.03,-65.94l-5.21 -120.91c92.82,0 150.04,4.67 223.84,-18.28 44.87,-13.96 80.26,-38.47 114.87,-66.73 6.91,-5.65 8.83,-8.36 15.95,-14.32 66.49,-55.72 128.79,-158.23 152.83,-240.63 12.15,-41.65 18.54,-61.59 -3.07,-93.88 -28.57,0 -39.94,6.08 -61.46,24.29 -35.33,29.88 -115.62,266.57 -423.45,163.04 -115.16,-38.73 -144.1,-62.77 -238.4,-124.79 -66.16,-43.52 -72.78,-84.39 -184.64,-87.76l-80.76 -0.13c-118.19,6.42 -193.71,43.75 -269.32,93.94l-100.17 81.43c-9.68,10.58 -9.68,14.13 -20.05,25.35 -31.58,34.16 -27.28,23.85 -63.69,72.51 -52.43,70.08 -96.3,145.15 -136.89,226.32 -24.64,49.27 -100.88,210.5 -100.88,262.32 14.13,-9.46 78.58,-95.2 99.62,-117.29l101.4 -115.52c21.87,-27.41 127.76,-130.12 164.97,-157.86 111.64,-83.22 250.1,-182.18 361.17,-43.97 118.74,147.76 110.78,323.74 29.41,505.2 -10.65,23.75 -22.42,47.17 -36.17,69.77 -14.54,23.91 -25.67,46.12 -41.39,69.59 -67.15,100.29 -116.77,153.54 -191.21,242.61 -94.14,112.62 -283.43,262.95 -407.88,353.82 -19.8,14.46 -47.87,30.72 -54.7,56.28 200.1,0 318.84,-9.61 511.59,-53.36 145.9,-33.12 157.56,7.68 134.38,174.76l-35.63 175.85z"/>
   <path class="fil2" d="M630.52 1614.27c-97.44,0 -398.24,-49.31 -412.65,-44.7 -29.66,9.5 20.83,92.2 30.69,103.83 91.37,107.58 308.06,167.88 447.53,167.88 0,40.78 5.05,74.25 5.04,121.07 0,43.63 -0.73,87.83 -0.2,131.36 0.44,35.87 8.07,79.81 10.29,115.83 8.77,142.52 44.39,298.86 78.63,435.91l63.33 193.95c65.29,175.92 169.31,345.45 284.65,492.19 12.03,15.29 17.71,20.68 29.44,36.13 12.28,16.18 17.22,22.39 38.28,27.3 0,-44.16 -6.11,-100 -10.89,-145.49 -8.87,-84.48 -29.65,-341.81 34.69,-405.8 64.55,-64.19 371.76,56.95 471.67,86.04 28.27,8.23 26.76,16.28 59.38,16.28 -17.66,-26.37 -14.6,-12.58 -38.25,-27.33 -22.94,-14.3 -155.88,-139.07 -177.39,-160.58 -22.67,-22.67 -47.36,-44.65 -68.05,-68.14l-121.01 -146.35c-21.03,-25.55 -39.83,-51.44 -59.3,-76.89l-57.57 -78.63c-114.71,-173.14 -203.32,-417.79 -103.97,-617.54 107.12,-215.38 371.23,-63.15 500.86,33.96l133.57 108.56c9.98,8.98 17.66,15.29 31.46,18.98 -7.19,-30.87 -24.2,-66.25 -36.01,-95.15 -56.76,-138.97 -180.48,-275.06 -322.18,-338.63 -118.39,-53.11 -206.63,-50.51 -332.86,-50.51 -54.11,0 -69.76,60.04 -207.53,115.31 -74.25,29.79 -168.99,51.16 -271.67,51.16z"/>
   <path class="fil2" d="M534.68 877.76c14.94,20.39 28.72,11.73 49.98,25.68 16.2,10.63 8.25,0.67 12.47,27.89 7.38,47.56 -1.92,163.42 -1.92,233.98 0,36.56 20.71,30.26 55.49,30.26 1.31,-15.78 5.05,-17.92 5.05,-35.31l0 -237.1c40.89,0 83.12,4.4 116.01,20.18 -1.9,22.86 -13.7,43.56 -21.78,63.97 -39.57,99.93 3.88,243.59 81.01,320.72 122.08,122.09 314.68,117.09 444.08,-2.42l10.69 -9.49c0.75,-0.72 1.82,-1.75 2.56,-2.48 0.73,-0.73 1.77,-1.81 2.5,-2.55 74.93,-77.56 104.37,-210.95 63.31,-314.55 -11.18,-28.2 -31.82,-58.69 -37.59,-83.48 33.41,-16.03 88.02,-29.02 125.51,-40.95 14.59,-4.65 29.45,-10.68 45.99,-14.54 -5.46,-20.46 -9.26,-16.99 -51.55,-29.16 -75.93,-21.85 -220,-75.65 -300.86,-102.68 -12.09,-4.04 -123.13,-39.68 -126.79,-39.68 -12.19,0 -106.9,36.52 -122.8,43.66 -41.26,18.52 -73.38,32.81 -116.43,50.03l-204.91 82.62c-21.13,8.39 -18.4,-0.46 -30.01,15.39z"/>
   <path class="fil1" d="M2123.59 817.23c0,180.54 148.51,322.86 282.47,322.86 76.04,0 107.76,4.29 176.6,-30.21 50.15,-25.14 68.38,-41.33 102.14,-79.46 97.19,-109.79 98.34,-285.99 13.9,-394.87 -34.71,-44.76 -78.11,-85 -131.87,-105.22 -123.9,-46.61 -256.92,-23.18 -348.75,68.64 -50.12,50.12 -94.5,120.33 -94.5,218.26z"/>
   <path class="fil0" d="M2527.12 3210.47l-44.79 -78.06 -35.92 -0.09 -40.35 0.45c0,37.41 4.03,111.64 -1.9,144.34 -3.86,21.31 -12.2,40.8 -17.68,57.98 -4.96,15.55 -14.41,44.07 -15.73,59.94 19.6,-5.23 18.81,-14.17 35.31,-25.22l0 121.07 65.57 0c0,-73.86 5.04,-142.54 5.04,-221.97 18.98,5.07 11.59,2.27 20.55,19.82 26.02,51.01 99.23,174.97 105.56,202.15l75.67 0 0 -358.17 -65.57 0c0,75.9 -5.05,141.78 -5.05,221.96 -16.32,-18.77 -76.61,-131.99 -80.71,-144.2z"/>
   <path class="fil2" d="M1634.31 3637.16l0 287.54c0,22.88 22.37,20.18 35.3,20.18 20.42,0 15.77,-18.64 15.43,-40.06l-0.29 -166.77c15.91,11.66 37.51,84.76 44.75,106.58 6.8,20.5 13.03,38.1 20.03,55.64 47.08,117.97 69.17,-20.73 105.99,-112.5 7.37,-18.38 11.53,-39.15 25.95,-49.72l-0.3 166.77c-0.62,39.36 -3.82,40.06 30.56,40.06 15.5,0 20.18,-14.78 20.18,-30.26l0 -267.37c0,-46.39 -14.99,-40.36 -45.4,-40.36 -19.62,0 -24.31,36.72 -30.98,54.77 -9.61,25.97 -61.72,172.64 -74.94,182.33l-68.71 -183.51c-18.03,-54.53 -9.78,-53.59 -57.39,-53.59 -15.51,0 -20.18,14.78 -20.18,30.27z"/>
   <path class="fil0" d="M1684.75 3132.7c-0.51,22.81 -5.05,20.05 -5.05,45.4 0,86.71 -19.75,317.81 116.02,317.81 49.04,0 94.35,-2.31 121.3,-55.25 35.72,-70.18 24.98,-217.32 24.98,-307.96l-70.62 0c0,51.39 5.27,212.69 -8.43,253.89 -8.49,25.56 -36.35,38.7 -42.02,38.7 -62.61,0 -55.49,-58.74 -55.48,-121.07 0.01,-62.97 -5.05,-114.3 -5.05,-171.52 -68.33,-5.69 -1.87,-7.72 -75.66,0z"/>
   <path class="fil0" d="M2834.81 3223.5l35.31 121.07 -65.57 0c0,-43.16 21.76,-84.56 30.26,-121.07zm-70.62 267.37c26.66,-114.45 24.36,-75.67 126.1,-75.67 1.57,18.84 13.49,61.75 20.18,75.67l75.66 0c-2.57,-30.93 -40.78,-140.34 -52.2,-179.85 -10.6,-36.7 -40.98,-151.73 -53.73,-178.31l-85.75 0 -99.84 335.15c-7.47,25.5 -15.47,23.01 69.57,23.01z"/>
   <path class="fil0" d="M2986.14 3233.59c0,26.8 10.35,51.77 23.86,66.94 41.12,46.22 94.37,51.62 107.83,79.41 10.21,21.07 -0.66,75.93 -95.81,34.47 -30.98,-13.49 -35.88,-28.11 -35.88,31.05 0,53.13 39.31,50.45 100.88,50.45 32.57,0 58.02,-10.72 75.79,-25.09 46.56,-37.64 61.75,-138.33 -38.73,-188.53 -116.17,-58.04 -38.34,-89.05 -21.93,-89.05 30.86,0 49.05,4.99 80.7,20.18l0 -75.67c-82.38,-19.19 -196.72,-20.26 -196.72,95.85z"/>
   <path class="fil0" d="M1967.22 3223.5c0,149.74 131.15,82.76 131.15,191.69 -27.75,6.47 -16.82,15.13 -55.49,15.13 -23,0 -49.99,-24.28 -75.66,-30.26l0 75.67c69.33,36.69 206.81,31.34 206.81,-75.67 0,-65.28 -18.31,-89.43 -79.06,-122.72 -21.73,-11.9 -42.09,-17.28 -51.95,-39.5 -19.88,-44.79 38.52,-44.62 60.39,-44.62 20.51,0 28.71,12.9 55.49,15.13l0 -70.63c-71.8,-16.73 -191.68,-20.2 -191.68,85.76z"/>
   <path class="fil0" d="M2201.6 3490.87c52.32,0 150.69,7.82 184.28,0 0,-33.21 -2.93,-50.23 -5.04,-75.67l-105.93 0 0 -65.58 85.75 0c5.35,-20.04 6.16,-6.01 9.46,-25.85 1.71,-10.28 0.63,-28.6 0.63,-39.73 -5.94,-4.96 -4.11,-1.09 -10.09,-2.1l-96.97 -4.35 3.78 -82.29 102.17 -0.07 -0.49 -60.65 -167.24 1.93 -0.31 354.35z"/>
   <path class="fil2" d="M2249.69 3894.43l-30.26 0 0 -95.85c52.7,0 80.7,-4.62 80.7,55.49 0,30.07 -20.36,40.36 -50.44,40.36zm5.05 -151.34l-35.31 0 0 -80.71c70.43,0 65.57,-1.74 65.57,50.45 0,12.15 -18.12,30.27 -30.26,30.27zm-90.8 45.4c0,36.3 5.02,55.44 5.21,85.59 0.52,83.31 -6.86,70.79 95.67,70.79 60.91,0 115.61,-76.58 74.83,-145.47 -8.87,-14.99 -20.39,-22.62 -29.44,-36.14 69.45,-103.72 1.37,-156.38 -60.53,-156.38 -81.46,0 -81.34,-13.31 -80.6,80.81 0.29,36.7 -5.15,59.6 -5.15,100.79z"/>
   <path class="fil2" d="M2451.45 3773.36l-25.22 0 5.04 -110.98c27.66,0 80.71,-7.75 80.71,50.45 0,38.1 -21.59,60.53 -60.53,60.53zm-20.18 131.16l0 -80.71c82.32,0 131.15,-26.74 131.15,-116.02 0,-106.36 -96,-100.89 -161.41,-100.89 -47.47,0 -20.45,163.21 -19.98,201.58 0.7,56.23 -17.75,158.73 31.77,138.75 15.34,-6.19 18.47,-23.45 18.47,-42.7z"/>
   <path class="fil0" d="M1588.02 3253.77c-8.06,12.32 -37.68,45.96 -49.56,54.62 10.36,21.58 33.25,56.49 10.24,81.7 -23.28,25.53 -58.08,12.61 -91.68,9.97 -6.58,13.96 -46.97,57.44 -59.79,70.06 19.85,29.1 150.4,56.13 220.84,-15.68 25.56,-26.06 41.49,-59.51 41.72,-109.76 0.25,-57.82 -11.09,-82.91 -45.66,-106.05 -18.55,4.95 -10.38,5.68 -26.1,15.13z"/>
   <path class="fil2" d="M2088.28 3869.21c0,26.13 -34.18,30.27 -55.49,30.27 -29.25,0 -28.26,-20.18 -70.62,-20.18 -2.34,28.12 -33.17,70.63 85.76,70.63 91.33,0 137.38,-108.44 42.67,-178.88 -49.4,-36.73 -77.98,-38.39 -77.98,-83.44 0,-52.02 104.02,-20.18 116.01,-20.18 0,-38.06 21.11,-65.58 -70.62,-65.58 -71.39,0 -118.42,69.41 -91.08,136.45 26.16,64.13 121.34,54.16 121.34,130.91z"/>
   <path class="fil0" d="M1745.27 2345.74c-109.59,0 -88.91,-237.1 -15.13,-237.1 103.36,0 79.68,237.1 15.13,237.1zm-25.22 40.36l25.22 0c49.61,0 90.8,-71.99 90.8,-126.11 0,-66.62 5.19,-143.99 -62.48,-184.71 -110.68,-66.6 -191.96,153.65 -111.29,272.74 10.79,15.92 34.41,38.09 57.76,38.09z"/>
   <path class="fil2" d="M1366.96 3204.59c1.21,0.91 2.92,0.87 3.49,2.93l31.82 44.13c24.22,-18.01 50.26,-43.4 66.4,-68.51 -11.46,-27.29 -13.47,-17.19 -11.31,-53.08l10.48 -2.35c19.36,-22.46 36.09,-36.08 76.42,-20.24 9.5,-13.47 16.25,-20.52 26.84,-32.91 3.67,-4.3 9.38,-10.69 14.12,-15.69 13.71,-14.43 -0.48,-4.6 13.79,-11.91l6.2 -13.1c-20.57,-16.64 -9.75,5.62 -23.35,-17.19 -82.6,0 -117.18,-22.81 -170.9,28.87 -40.03,38.5 -49.11,61.6 -49.22,112.34l1.18 38.65c4.12,16.87 -5.04,2.85 4.04,8.06z"/>
   <path class="fil0" d="M1457.76 2174.22c24.48,-105.07 116.01,-67.46 116.01,-15.13 0,43.41 -43.84,87.09 -71.9,114.74 -17.85,17.59 -25.64,30.61 -42.87,47.92 -8.78,8.81 -13.58,15.05 -20.88,24.52 -9.91,12.85 -13.92,13.8 -15.66,34.78l191.68 0 0 -40.36 -105.93 0c2.13,-25.54 11.25,-29.48 26.45,-44.17 149.49,-144.38 49.08,-228.24 3.81,-228.24 -36.15,0 -70.26,0.27 -98.95,42.29 -5.76,8.44 -14.22,28.68 -15.88,40.9 -3.79,27.93 9.46,22.75 34.12,22.75z"/>
   <path class="fil0" d="M1861.29 2143.96l0 30.26c75.25,0 8.5,-65.58 95.84,-65.58 30.35,0 83.6,40.65 20.97,116.82 -13.37,16.27 -27.93,32.08 -42.27,48.53 -23.47,26.95 -73.39,80.48 -79.58,107.06l191.68 0 0 -40.36 -110.97 0c31.91,-60.32 110.97,-98.9 110.97,-181.6 0,-41.55 -36.21,-90.81 -75.66,-90.81 -57.19,0 -110.97,23.75 -110.97,75.67z"/>
   <path class="fil3" d="M1548.56 3233.59c-13.05,1.62 -1.54,-17.05 -0.17,-6.26 0.01,0.08 0.15,1.33 0.15,1.46 0.03,0.44 4.21,4.28 0.01,4.8zm-181.59 -29c0,60.46 76.56,81.71 133.5,100.92 9.7,3.27 1.08,0.04 12.02,2.81 18.29,4.62 14.83,6.53 25.98,0.07 11.88,-8.66 41.51,-42.3 49.56,-54.62 -0.18,-0.64 0.21,-2.44 0.28,-1.96l4.1 -9.33c7.85,-17.12 4.08,11.18 6.59,-18.98l-28.84 -5.53c-16.37,-5.35 -11.03,2.16 -11.51,-19.69 -12.62,0.28 -17.42,4.19 -27.58,0.91l-15.26 -8.18c-24.9,-10.65 -42.97,-3.61 -47.96,-63.3l-10.48 2.35c-2.16,35.89 -0.15,25.79 11.31,53.08 -16.15,25.11 -42.18,50.51 -66.4,68.51l-31.82 -44.13c-0.57,-2.07 -2.27,-2.02 -3.49,-2.93z"/>
   <path class="fil4" d="M2108.45 2113.69c19.44,1.62 16.26,5.05 40.35,5.05 0,92.99 5.05,168.72 5.05,262.32l40.35 0c11.34,-48.67 5.05,-216.24 5.05,-277.45 0,-40.23 -31.53,-35.32 -60.53,-35.32 -18.92,0 -23.44,31.19 -30.26,45.4z"/>
   <path class="fil5" d="M2201.6 3490.87l0.31 -354.35 167.24 -1.93 0.49 60.65 -102.17 0.07 -3.78 82.29 96.97 4.35c-6.43,-7.7 -1.24,-5.99 -12.29,-10.7 -7.7,-3.29 -13.62,-2.7 -22.67,-2.8 -16.55,-0.19 -34.05,0.46 -50.79,0.46l0 -65.58c106.48,0 98.78,8.29 101.54,-24.94 2.63,-31.65 4.13,-40.72 -13.5,-47.98 -17.55,-7.23 -149.28,-2.25 -168.74,2.29 0,35.29 -5.17,48.3 -5.22,80.54l0.18 272.58 12.43 5.05z"/>
   <path class="fil3" d="M1588.91 3112.52l1.5 1.51c-0.1,-0.1 -2,-1 -1.5,-1.51zm10.11 -65.55l16.08 8.24c-21.26,1.83 -2.11,3.79 -16.08,-8.24zm0 0c-14.27,7.31 -0.08,-2.52 -13.79,11.91 -4.75,5 -10.45,11.39 -14.12,15.69 -10.59,12.39 -17.34,19.45 -26.84,32.91l16.1 8.29c5.33,2.64 1.29,1.04 7.01,3.49l25.33 10.08c21.51,11.94 14.95,9.4 30.27,-7.54 62.77,-69.38 17.65,-34.76 21.41,-79.9 -45.83,-10.68 -16.58,-16.22 -62.53,-25.22 13.6,22.82 2.78,0.55 23.35,17.19l-6.2 13.1z"/>
   <path class="fil3" d="M1397.23 3440.42l0 0zm5.05 -5.04l-5.05 5.04 5.05 -5.04zm0 0l0 0zm-25.22 -5.05l0 0zm10.09 -10.09c-3.05,16.52 6.43,7.03 -10.09,10.09 3.06,-16.51 -6.42,-7.03 10.09,-10.09zm5.05 -5.05l-5.05 5.05 5.05 -5.05zm0 0c4.7,-17.62 1.92,-11.32 15.13,-20.18 -4.71,17.62 -1.92,11.33 -15.13,20.18zm15.13 -20.18c3.05,-16.52 -6.43,-7.03 10.09,-10.09l-10.09 10.09zm-10.09 75.11c12.83,-12.62 53.21,-56.1 59.79,-70.06 -6.62,-5.63 12.51,-5.05 -14.39,-5.05 -9.57,18.1 -7.95,18.7 -25.22,30.27 2.44,-29.31 7.98,-12.84 16.31,-30.1 7.98,-16.56 -3.86,-16.01 -16.31,-10.25l5.66 -19.98c-10.21,1.6 -14.21,0.19 -23.9,7.11l-7.85 6.57c-24.01,21.03 -31.1,45.02 -49.57,51.7l0 10.09c28.84,2.4 9,5.46 35.28,17.64l11.85 6.18c5.18,3.51 -2.54,2.15 8.35,5.89z"/>
  </g>
 </g>
</svg>
